<svg version="1" xmlns="http://www.w3.org/2000/svg" width="266.667" height="266.667" viewBox="0 0 200.000000 200.000000"><path d="M90.5 1.2c-24.9 2.5-38 13.7-39.3 33.4-.5 8.6 1 14.2 7.5 26.4 4.4 8.2 17.4 26.4 24.7 34.4 2 2.2 3.6 4.2 3.6 4.5 0 .3-3.4 4.6-7.5 9.6-23.9 28.5-32 47.9-27.1 64.5 1.6 5.8 7.2 13.3 12.4 16.8 8.9 6 20.1 8.6 37.2 8.4 30.3-.2 46.5-12.2 47.4-35.3.6-13.1-10.9-34.3-31.2-57.7l-5.5-6.3 2.5-2.7c15.8-17.1 29.9-39 33.2-51.7 2.8-10.9.2-22.9-7-31.4-8.3-9.9-29.2-15.2-50.9-12.9zm20.9 5.3c12.6 1.1 23.5 6.3 28.3 13.6 4.7 7.1 6.1 17.9 3.3 26.5-3.6 11.5-17.3 31.8-32.8 48.8-2.5 2.6-4.1 5.1-3.6 5.5 1.9 1.3 13.4 15 19.1 22.6 9.3 12.6 16.6 25.4 17.9 31.8 2.9 14.2-1.8 26.4-12.8 32.7-15.9 9-49 8.4-63.2-1.2-11.5-7.9-14.7-24.2-7.8-39.2 4.4-9.5 14.3-24 25.2-36.9l9.1-10.8-5.3-6.2c-2.9-3.4-5.5-6.4-5.8-6.7-1.6-1.5-11.3-14.4-15-19.9-14.6-21.8-15.8-38.8-3.5-50.8 4.4-4.2 6.7-5.6 12.4-7.4 7-2.1 18.7-3.7 24.6-3.3 1.7.1 6.1.5 9.9.9z"/><path d="M88 87c0 1.1 11.1 13 12.2 13 .9 0 8.8-8.2 11.6-12.1 1.1-1.6 1-1.7-1-1.3-1.3.2-3.9.7-5.8 1-1.9.3-3.6.7-3.8.8-.1.2-3.1-.3-6.7-.9-3.6-.7-6.5-.9-6.5-.5zM88.5 153.8c-6 1.8-15 4.6-20 6.1l-9 2.7.2 3.4c.8 10.6 7.8 18.5 19.5 22.2 6 1.8 9.7 2.2 20.3 2.2 7.2.1 15.5-.5 18.6-1.2 12.6-2.9 21.4-11.5 22.5-21.8l.5-4.9-14.8-4.4c-8.1-2.4-17.5-5.1-20.8-6l-6-1.7-11 3.4z"/></svg>