<?xml version="1.0" encoding="UTF-8" standalone="no"?>
<!DOCTYPE svg PUBLIC "-//W3C//DTD SVG 1.1//EN" "http://www.w3.org/Graphics/SVG/1.1/DTD/svg11.dtd">
<svg xmlns:xl="http://www.w3.org/1999/xlink" xmlns="http://www.w3.org/2000/svg" xmlns:dc="http://purl.org/dc/elements/1.1/" version="1.1" viewBox="23.5 7.5 1348 628" width="1348" height="628">
  <defs>
    <filter id="Shadow" filterUnits="userSpaceOnUse" x="-111.3" y="-55.3">
      <feGaussianBlur in="SourceAlpha" result="blur" stdDeviation="1.308"/>
      <feOffset in="blur" result="offset" dx="0" dy="2"/>
      <feFlood flood-color="black" flood-opacity=".5" result="flood"/>
      <feComposite in="flood" in2="offset" operator="in"/>
    </filter>
    <marker orient="auto" overflow="visible" markerUnits="strokeWidth" id="CrowBar_Marker" stroke-linejoin="miter" stroke-miterlimit="10" viewBox="-1 -5 16 10" markerWidth="16" markerHeight="10" color="black">
      <g>
        <path d="M 14 0 L 0 0 M 14 4 L 4 0 L 14 -4 M 0 4 L 0 -4" fill="none" stroke="currentColor" stroke-width="1"/>
      </g>
    </marker>
    <marker orient="auto" overflow="visible" markerUnits="strokeWidth" id="DoubleBar_Marker" stroke-linejoin="miter" stroke-miterlimit="10" viewBox="-15 -5 16 10" markerWidth="16" markerHeight="10" color="black">
      <g>
        <path d="M -14 0 L 0 0 M -5 -4 L -5 4 M 0 -4 L 0 4" fill="none" stroke="currentColor" stroke-width="1"/>
      </g>
    </marker>
    <marker orient="auto" overflow="visible" markerUnits="strokeWidth" id="CrowBall_Marker" stroke-linejoin="miter" stroke-miterlimit="10" viewBox="-1 -5 20 10" markerWidth="20" markerHeight="10" color="black">
      <g>
        <path d="M 18 0 L 6 0 M 18 4 L 8 0 L 18 -4 M .87868 2.12132 C -.29289 .949747 -.29289 -.949747 .87868 -2.12132 C 2.05025 -3.29289 3.94975 -3.29289 5.12132 -2.12132 C 6.292893 -.949747 6.292893 .949747 5.12132 2.12132 C 3.94975 3.29289 2.05025 3.29289 .87868 2.12132" fill="none" stroke="currentColor" stroke-width="1"/>
      </g>
    </marker>
    <marker orient="auto" overflow="visible" markerUnits="strokeWidth" id="BarBall_Marker" stroke-linejoin="miter" stroke-miterlimit="10" viewBox="-19 -5 20 10" markerWidth="20" markerHeight="10" color="black">
      <g>
        <path d="M -18 0 L -6 0 M -9 -4 L -9 4 M -.87868 -2.12132 C .29289 -.949747 .29289 .949747 -.87868 2.12132 C -2.05025 3.29289 -3.94975 3.29289 -5.12132 2.12132 C -6.292893 .949747 -6.292893 -.949747 -5.12132 -2.12132 C -3.94975 -3.29289 -2.05025 -3.29289 -.87868 -2.12132" fill="none" stroke="currentColor" stroke-width="1"/>
      </g>
    </marker>
  </defs>
  <g id="Canvas_1" stroke-opacity="1" stroke="none" stroke-dasharray="none" fill="none" fill-opacity="1">
    <title>Canvas 1</title>
    <rect fill="white" x="23.5" y="7.5" width="1348" height="628"/>
    <g id="Canvas_1_Layer_1">
      <title>Layer 1</title>
      <g id="Graphic_34_shadow" filter="url(#Shadow)">
        <rect x="639" y="9" width="198" height="14" fill="white"/>
        <rect x="639" y="9" width="198" height="14" stroke="black" stroke-linecap="round" stroke-linejoin="round" stroke-width="1"/>
      </g>
      <g id="Graphic_35_shadow" filter="url(#Shadow)">
        <rect x="639" y="23" width="198" height="70" fill="white"/>
        <rect x="639" y="23" width="198" height="70" stroke="black" stroke-linecap="round" stroke-linejoin="round" stroke-width="1"/>
      </g>
      <g id="Graphic_70_shadow" filter="url(#Shadow)">
        <rect x="891" y="150" width="198" height="14" fill="white"/>
        <rect x="891" y="150" width="198" height="14" stroke="black" stroke-linecap="round" stroke-linejoin="round" stroke-width="1"/>
      </g>
      <g id="Graphic_71_shadow" filter="url(#Shadow)">
        <rect x="891" y="164" width="198" height="70" fill="white"/>
        <rect x="891" y="164" width="198" height="70" stroke="black" stroke-linecap="round" stroke-linejoin="round" stroke-width="1"/>
      </g>
      <g id="Graphic_73_shadow" filter="url(#Shadow)">
        <rect x="333" y="135" width="198" height="14" fill="white"/>
        <rect x="333" y="135" width="198" height="14" stroke="black" stroke-linecap="round" stroke-linejoin="round" stroke-width="1"/>
      </g>
      <g id="Graphic_74_shadow" filter="url(#Shadow)">
        <rect x="333" y="149" width="198" height="98" fill="white"/>
        <rect x="333" y="149" width="198" height="98" stroke="black" stroke-linecap="round" stroke-linejoin="round" stroke-width="1"/>
      </g>
      <g id="Graphic_77_shadow" filter="url(#Shadow)">
        <rect x="333" y="351" width="198" height="14" fill="white"/>
        <rect x="333" y="351" width="198" height="14" stroke="black" stroke-linecap="round" stroke-linejoin="round" stroke-width="1"/>
      </g>
      <g id="Graphic_78_shadow" filter="url(#Shadow)">
        <rect x="333" y="365" width="198" height="28" fill="white"/>
        <rect x="333" y="365" width="198" height="28" stroke="black" stroke-linecap="round" stroke-linejoin="round" stroke-width="1"/>
      </g>
      <g id="Graphic_80_shadow" filter="url(#Shadow)">
        <rect x="639" y="320" width="198" height="14" fill="white"/>
        <rect x="639" y="320" width="198" height="14" stroke="black" stroke-linecap="round" stroke-linejoin="round" stroke-width="1"/>
      </g>
      <g id="Graphic_81_shadow" filter="url(#Shadow)">
        <rect x="639" y="334" width="198" height="98" fill="white"/>
        <rect x="639" y="334" width="198" height="98" stroke="black" stroke-linecap="round" stroke-linejoin="round" stroke-width="1"/>
      </g>
      <g id="Graphic_86_shadow" filter="url(#Shadow)">
        <rect x="27" y="324" width="198" height="14" fill="white"/>
        <rect x="27" y="324" width="198" height="14" stroke="black" stroke-linecap="round" stroke-linejoin="round" stroke-width="1"/>
      </g>
      <g id="Graphic_87_shadow" filter="url(#Shadow)">
        <rect x="27" y="338" width="198" height="84" fill="white"/>
        <rect x="27" y="338" width="198" height="84" stroke="black" stroke-linecap="round" stroke-linejoin="round" stroke-width="1"/>
      </g>
      <g id="Graphic_95_shadow" filter="url(#Shadow)">
        <rect x="891" y="342" width="198" height="14" fill="white"/>
        <rect x="891" y="342" width="198" height="14" stroke="black" stroke-linecap="round" stroke-linejoin="round" stroke-width="1"/>
      </g>
      <g id="Graphic_96_shadow" filter="url(#Shadow)">
        <rect x="891" y="356" width="198" height="56" fill="white"/>
        <rect x="891" y="356" width="198" height="56" stroke="black" stroke-linecap="round" stroke-linejoin="round" stroke-width="1"/>
      </g>
      <g id="Graphic_100_shadow" filter="url(#Shadow)">
        <rect x="1170" y="29" width="198" height="14" fill="white"/>
        <rect x="1170" y="29" width="198" height="14" stroke="black" stroke-linecap="round" stroke-linejoin="round" stroke-width="1"/>
      </g>
      <g id="Graphic_101_shadow" filter="url(#Shadow)">
        <rect x="1170" y="43" width="198" height="56" fill="white"/>
        <rect x="1170" y="43" width="198" height="56" stroke="black" stroke-linecap="round" stroke-linejoin="round" stroke-width="1"/>
      </g>
      <g id="Graphic_103_shadow" filter="url(#Shadow)">
        <rect x="1170" y="342" width="198" height="14" fill="white"/>
        <rect x="1170" y="342" width="198" height="14" stroke="black" stroke-linecap="round" stroke-linejoin="round" stroke-width="1"/>
      </g>
      <g id="Graphic_104_shadow" filter="url(#Shadow)">
        <rect x="1170" y="356" width="198" height="56" fill="white"/>
        <rect x="1170" y="356" width="198" height="56" stroke="black" stroke-linecap="round" stroke-linejoin="round" stroke-width="1"/>
      </g>
      <g id="Graphic_108_shadow" filter="url(#Shadow)">
        <rect x="1170" y="484" width="198" height="14" fill="white"/>
        <rect x="1170" y="484" width="198" height="14" stroke="black" stroke-linecap="round" stroke-linejoin="round" stroke-width="1"/>
      </g>
      <g id="Graphic_109_shadow" filter="url(#Shadow)">
        <rect x="1170" y="498" width="198" height="42" fill="white"/>
        <rect x="1170" y="498" width="198" height="42" stroke="black" stroke-linecap="round" stroke-linejoin="round" stroke-width="1"/>
      </g>
      <g id="Graphic_111_shadow" filter="url(#Shadow)">
        <rect x="27" y="513" width="198" height="14" fill="white"/>
        <rect x="27" y="513" width="198" height="14" stroke="black" stroke-linecap="round" stroke-linejoin="round" stroke-width="1"/>
      </g>
      <g id="Graphic_112_shadow" filter="url(#Shadow)">
        <rect x="27" y="527" width="198" height="84" fill="white"/>
        <rect x="27" y="527" width="198" height="84" stroke="black" stroke-linecap="round" stroke-linejoin="round" stroke-width="1"/>
      </g>
      <g id="Graphic_121_shadow" filter="url(#Shadow)">
        <rect x="639" y="532" width="198" height="14" fill="yellow"/>
        <rect x="639" y="532" width="198" height="14" stroke="black" stroke-linecap="round" stroke-linejoin="round" stroke-width="1"/>
      </g>
      <g id="Graphic_122_shadow" filter="url(#Shadow)">
        <rect x="639" y="546" width="198" height="84" fill="yellow"/>
        <rect x="639" y="546" width="198" height="84" stroke="black" stroke-linecap="round" stroke-linejoin="round" stroke-width="1"/>
      </g>
      <g id="Line_46">
        <line x1="325.38385" y1="254.41222" x2="220.84692" y2="316.58778" marker-end="url(#CrowBar_Marker)" marker-start="url(#DoubleBar_Marker)" stroke="black" stroke-linecap="round" stroke-linejoin="round" stroke-width="1"/>
      </g>
      <g id="Line_47">
        <line x1="318.50008" y1="372.3709" x2="243.4999" y2="372.616" marker-end="url(#CrowBall_Marker)" marker-start="url(#DoubleBar_Marker)" stroke="black" stroke-linecap="round" stroke-linejoin="round" stroke-width="1"/>
      </g>
      <g id="Line_58">
        <line x1="545.49876" y1="373.48364" x2="620.5016" y2="374.46407" marker-end="url(#CrowBall_Marker)" marker-start="url(#DoubleBar_Marker)" stroke="black" stroke-linecap="round" stroke-linejoin="round" stroke-width="1"/>
      </g>
      <g id="Line_64">
        <line x1="633.0145" y1="99.03259" x2="544.1855" y2="139.6733" marker-end="url(#CrowBar_Marker)" marker-start="url(#DoubleBar_Marker)" stroke="black" stroke-linecap="round" stroke-linejoin="round" stroke-width="1"/>
      </g>
      <g id="Line_65">
        <line x1="537.03556" y1="254.5019" x2="629.5414" y2="310.42862" marker-end="url(#CrowBall_Marker)" marker-start="url(#DoubleBar_Marker)" stroke="black" stroke-linecap="round" stroke-linejoin="round" stroke-width="1"/>
      </g>
      <g id="Group_33">
        <g id="Graphic_35">
          <rect x="639" y="23" width="198" height="70" fill="white"/>
          <rect x="639" y="23" width="198" height="70" stroke="black" stroke-linecap="round" stroke-linejoin="round" stroke-width="1"/>
          <text transform="translate(644 23)" fill="black">
            <tspan font-family="Helvetica" font-size="12" fill="black" x="0" y="11">id</tspan>
            <tspan font-family="Helvetica" font-size="12" fill="black" x="0" y="25">number int not null</tspan>
            <tspan font-family="Helvetica" font-size="12" fill="black" x="0" y="39">start_date date not null</tspan>
            <tspan font-family="Helvetica" font-size="12" fill="black" x="0" y="53">wikidata_id varchar(20)</tspan>
            <tspan font-family="Helvetica" font-size="12" fill="black" x="0" y="67">end_date date null</tspan>
          </text>
        </g>
        <g id="Graphic_34">
          <rect x="639" y="9" width="198" height="14" fill="white"/>
          <rect x="639" y="9" width="198" height="14" stroke="black" stroke-linecap="round" stroke-linejoin="round" stroke-width="1"/>
          <text transform="translate(644 9)" fill="black">
            <tspan font-family="Helvetica" font-weight="bold" font-size="12" fill="black" x="38.649414" y="11">parliament_periods</tspan>
          </text>
        </g>
      </g>
      <g id="Group_69">
        <g id="Graphic_71">
          <rect x="891" y="164" width="198" height="70" fill="white"/>
          <rect x="891" y="164" width="198" height="70" stroke="black" stroke-linecap="round" stroke-linejoin="round" stroke-width="1"/>
          <text transform="translate(896 164)" fill="black">
            <tspan font-family="Helvetica" font-size="12" fill="black" x="0" y="11">id</tspan>
            <tspan font-family="Helvetica" font-size="12" fill="black" x="0" y="25">number int not null</tspan>
            <tspan font-family="Helvetica" font-size="12" fill="black" x="0" y="39">start_date date not null</tspan>
            <tspan font-family="Helvetica" font-size="12" fill="black" x="0" y="53">end_date date not null</tspan>
            <tspan font-family="Helvetica" font-size="12" fill="black" x="0" y="67">parliament_period_id</tspan>
          </text>
        </g>
        <g id="Graphic_70">
          <rect x="891" y="150" width="198" height="14" fill="white"/>
          <rect x="891" y="150" width="198" height="14" stroke="black" stroke-linecap="round" stroke-linejoin="round" stroke-width="1"/>
          <text transform="translate(896 150)" fill="black">
            <tspan font-family="Helvetica" font-weight="bold" font-size="12" fill="black" x="35.33008" y="11">prorogation_periods</tspan>
          </text>
        </g>
      </g>
      <g id="Group_72">
        <g id="Graphic_74">
          <rect x="333" y="149" width="198" height="98" fill="white"/>
          <rect x="333" y="149" width="198" height="98" stroke="black" stroke-linecap="round" stroke-linejoin="round" stroke-width="1"/>
          <text transform="translate(338 149)" fill="black">
            <tspan font-family="Helvetica" font-size="12" fill="black" x="0" y="11">id</tspan>
            <tspan font-family="Helvetica" font-size="12" fill="black" x="0" y="25">number int not null</tspan>
            <tspan font-family="Helvetica" font-size="12" fill="black" x="0" y="39">start_date date not null</tspan>
            <tspan font-family="Helvetica" font-size="12" fill="black" x="0" y="53">end_date date null</tspan>
            <tspan font-family="Helvetica" font-size="12" fill="black" x="0" y="67">citation varchar(255) not null</tspan>
            <tspan font-family="Helvetica" font-size="12" fill="black" x="0" y="81">wikidata_id varchar(20)</tspan>
            <tspan font-family="Helvetica" font-size="12" fill="black" x="0" y="95">parliament_period_id</tspan>
          </text>
        </g>
        <g id="Graphic_73">
          <rect x="333" y="135" width="198" height="14" fill="white"/>
          <rect x="333" y="135" width="198" height="14" stroke="black" stroke-linecap="round" stroke-linejoin="round" stroke-width="1"/>
          <text transform="translate(338 135)" fill="black">
            <tspan font-family="Helvetica" font-weight="bold" font-size="12" fill="black" x="68.31836" y="11">sessions</tspan>
          </text>
        </g>
      </g>
      <g id="Line_75">
        <line x1="825.7177" y1="100.08016" x2="898.7915" y2="140.96669" marker-end="url(#CrowBall_Marker)" marker-start="url(#DoubleBar_Marker)" stroke="black" stroke-linecap="round" stroke-linejoin="round" stroke-width="1"/>
      </g>
      <g id="Group_76">
        <g id="Graphic_78">
          <rect x="333" y="365" width="198" height="28" fill="white"/>
          <rect x="333" y="365" width="198" height="28" stroke="black" stroke-linecap="round" stroke-linejoin="round" stroke-width="1"/>
          <text transform="translate(338 365)" fill="black">
            <tspan font-family="Helvetica" font-size="12" fill="black" x="0" y="11">id</tspan>
            <tspan font-family="Helvetica" font-size="12" fill="black" x="0" y="25">name</tspan>
          </text>
        </g>
        <g id="Graphic_77">
          <rect x="333" y="351" width="198" height="14" fill="white"/>
          <rect x="333" y="351" width="198" height="14" stroke="black" stroke-linecap="round" stroke-linejoin="round" stroke-width="1"/>
          <text transform="translate(338 351)" fill="black">
            <tspan font-family="Helvetica" font-weight="bold" font-size="12" fill="black" x="72.99414" y="11">houses</tspan>
          </text>
        </g>
      </g>
      <g id="Group_79">
        <g id="Graphic_81">
          <rect x="639" y="334" width="198" height="98" fill="white"/>
          <rect x="639" y="334" width="198" height="98" stroke="black" stroke-linecap="round" stroke-linejoin="round" stroke-width="1"/>
          <text transform="translate(644 334)" fill="black">
            <tspan font-family="Helvetica" font-size="12" fill="black" x="0" y="11">id</tspan>
            <tspan font-family="Helvetica" font-size="12" fill="black" x="0" y="25">date</tspan>
            <tspan font-family="Helvetica" font-size="12" fill="black" x="0" y="39">google_event_id</tspan>
            <tspan font-family="Helvetica" font-size="12" fill="black" x="0" y="53">session_id</tspan>
            <tspan font-family="Helvetica" font-size="12" fill="black" x="0" y="67">house_id</tspan>
            <tspan font-family="Helvetica" font-size="12" fill="black" x="0" y="81">recess_id</tspan>
            <tspan font-family="Helvetica" font-size="12" fill="black" x="0" y="95">recess_date_id</tspan>
          </text>
        </g>
        <g id="Graphic_80">
          <rect x="639" y="320" width="198" height="14" fill="white"/>
          <rect x="639" y="320" width="198" height="14" stroke="black" stroke-linecap="round" stroke-linejoin="round" stroke-width="1"/>
          <text transform="translate(644 320)" fill="black">
            <tspan font-family="Helvetica" font-weight="bold" font-size="12" fill="black" x="40.65332" y="11">adjournment_days</tspan>
          </text>
        </g>
      </g>
      <g id="Group_85">
        <g id="Graphic_87">
          <rect x="27" y="338" width="198" height="84" fill="white"/>
          <rect x="27" y="338" width="198" height="84" stroke="black" stroke-linecap="round" stroke-linejoin="round" stroke-width="1"/>
          <text transform="translate(32 338)" fill="black">
            <tspan font-family="Helvetica" font-size="12" fill="black" x="0" y="11">id</tspan>
            <tspan font-family="Helvetica" font-size="12" fill="black" x="0" y="25">start_date</tspan>
            <tspan font-family="Helvetica" font-size="12" fill="black" x="0" y="39">end_date</tspan>
            <tspan font-family="Helvetica" font-size="12" fill="black" x="0" y="53">google_event_id</tspan>
            <tspan font-family="Helvetica" font-size="12" fill="black" x="0" y="67">session_id</tspan>
            <tspan font-family="Helvetica" font-size="12" fill="black" x="0" y="81">house_id</tspan>
          </text>
        </g>
        <g id="Graphic_86">
          <rect x="27" y="324" width="198" height="14" fill="white"/>
          <rect x="27" y="324" width="198" height="14" stroke="black" stroke-linecap="round" stroke-linejoin="round" stroke-width="1"/>
          <text transform="translate(32 324)" fill="black">
            <tspan font-family="Helvetica" font-weight="bold" font-size="12" fill="black" x="58.990234" y="11">sitting_days</tspan>
          </text>
        </g>
      </g>
      <g id="Group_94">
        <g id="Graphic_96">
          <rect x="891" y="356" width="198" height="56" fill="white"/>
          <rect x="891" y="356" width="198" height="56" stroke="black" stroke-linecap="round" stroke-linejoin="round" stroke-width="1"/>
          <text transform="translate(896 356)" fill="black">
            <tspan font-family="Helvetica" font-size="12" fill="black" x="0" y="11">id</tspan>
            <tspan font-family="Helvetica" font-size="12" fill="black" x="0" y="25">date</tspan>
            <tspan font-family="Helvetica" font-size="12" fill="black" x="0" y="39">google_event_id</tspan>
            <tspan font-family="Helvetica" font-size="12" fill="black" x="0" y="53">prorogation_period_id</tspan>
          </text>
        </g>
        <g id="Graphic_95">
          <rect x="891" y="342" width="198" height="14" fill="white"/>
          <rect x="891" y="342" width="198" height="14" stroke="black" stroke-linecap="round" stroke-linejoin="round" stroke-width="1"/>
          <text transform="translate(896 342)" fill="black">
            <tspan font-family="Helvetica" font-weight="bold" font-size="12" fill="black" x="43.325195" y="11">prorogation_days</tspan>
          </text>
        </g>
      </g>
      <g id="Line_97">
        <line x1="990" y1="248.5" x2="990" y2="323.5" marker-end="url(#CrowBall_Marker)" marker-start="url(#DoubleBar_Marker)" stroke="black" stroke-linecap="round" stroke-linejoin="round" stroke-width="1"/>
      </g>
      <g id="Group_99">
        <g id="Graphic_101">
          <rect x="1170" y="43" width="198" height="56" fill="white"/>
          <rect x="1170" y="43" width="198" height="56" stroke="black" stroke-linecap="round" stroke-linejoin="round" stroke-width="1"/>
          <text transform="translate(1175 43)" fill="black">
            <tspan font-family="Helvetica" font-size="12" fill="black" x="0" y="11">id</tspan>
            <tspan font-family="Helvetica" font-size="12" fill="black" x="0" y="25">number int not null</tspan>
            <tspan font-family="Helvetica" font-size="12" fill="black" x="0" y="39">start_date date not null</tspan>
            <tspan font-family="Helvetica" font-size="12" fill="black" x="0" y="53">end_date date null</tspan>
          </text>
        </g>
        <g id="Graphic_100">
          <rect x="1170" y="29" width="198" height="14" fill="white"/>
          <rect x="1170" y="29" width="198" height="14" stroke="black" stroke-linecap="round" stroke-linejoin="round" stroke-width="1"/>
          <text transform="translate(1175 29)" fill="black">
            <tspan font-family="Helvetica" font-weight="bold" font-size="12" fill="black" x="36.99414" y="11">dissolution_periods</tspan>
          </text>
        </g>
      </g>
      <g id="Group_102">
        <g id="Graphic_104">
          <rect x="1170" y="356" width="198" height="56" fill="white"/>
          <rect x="1170" y="356" width="198" height="56" stroke="black" stroke-linecap="round" stroke-linejoin="round" stroke-width="1"/>
          <text transform="translate(1175 356)" fill="black">
            <tspan font-family="Helvetica" font-size="12" fill="black" x="0" y="11">id</tspan>
            <tspan font-family="Helvetica" font-size="12" fill="black" x="0" y="25">date</tspan>
            <tspan font-family="Helvetica" font-size="12" fill="black" x="0" y="39">google_event_id</tspan>
            <tspan font-family="Helvetica" font-size="12" fill="black" x="0" y="53">dissolution_period_id</tspan>
          </text>
        </g>
        <g id="Graphic_103">
          <rect x="1170" y="342" width="198" height="14" fill="white"/>
          <rect x="1170" y="342" width="198" height="14" stroke="black" stroke-linecap="round" stroke-linejoin="round" stroke-width="1"/>
          <text transform="translate(1175 342)" fill="black">
            <tspan font-family="Helvetica" font-weight="bold" font-size="12" fill="black" x="44.98926" y="11">dissolution_days</tspan>
          </text>
        </g>
      </g>
      <g id="Line_105">
        <line x1="1269" y1="113.5" x2="1269" y2="323.5" marker-end="url(#CrowBall_Marker)" marker-start="url(#DoubleBar_Marker)" stroke="black" stroke-linecap="round" stroke-linejoin="round" stroke-width="1"/>
      </g>
      <g id="Group_107">
        <g id="Graphic_109">
          <rect x="1170" y="498" width="198" height="42" fill="white"/>
          <rect x="1170" y="498" width="198" height="42" stroke="black" stroke-linecap="round" stroke-linejoin="round" stroke-width="1"/>
          <text transform="translate(1175 498)" fill="black">
            <tspan font-family="Helvetica" font-size="12" fill="black" x="0" y="11">id</tspan>
            <tspan font-family="Helvetica" font-size="12" fill="black" x="0" y="25">google_calendar_id</tspan>
            <tspan font-family="Helvetica" font-size="12" fill="black" x="0" y="39">token</tspan>
          </text>
        </g>
        <g id="Graphic_108">
          <rect x="1170" y="484" width="198" height="14" fill="white"/>
          <rect x="1170" y="484" width="198" height="14" stroke="black" stroke-linecap="round" stroke-linejoin="round" stroke-width="1"/>
          <text transform="translate(1175 484)" fill="black">
            <tspan font-family="Helvetica" font-weight="bold" font-size="12" fill="black" x="57.64844" y="11">sync_tokens</tspan>
          </text>
        </g>
      </g>
      <g id="Group_110">
        <g id="Graphic_112">
          <rect x="27" y="527" width="198" height="84" fill="white"/>
          <rect x="27" y="527" width="198" height="84" stroke="black" stroke-linecap="round" stroke-linejoin="round" stroke-width="1"/>
          <text transform="translate(32 527)" fill="black">
            <tspan font-family="Helvetica" font-size="12" fill="black" x="0" y="11">id</tspan>
            <tspan font-family="Helvetica" font-size="12" fill="black" x="0" y="25">start_date</tspan>
            <tspan font-family="Helvetica" font-size="12" fill="black" x="0" y="39">end_date</tspan>
            <tspan font-family="Helvetica" font-size="12" fill="black" x="0" y="53">google_event_id</tspan>
            <tspan font-family="Helvetica" font-size="12" fill="black" x="0" y="67">session_id</tspan>
            <tspan font-family="Helvetica" font-size="12" fill="black" x="0" y="81">house_id</tspan>
          </text>
        </g>
        <g id="Graphic_111">
          <rect x="27" y="513" width="198" height="14" fill="white"/>
          <rect x="27" y="513" width="198" height="14" stroke="black" stroke-linecap="round" stroke-linejoin="round" stroke-width="1"/>
          <text transform="translate(32 513)" fill="black">
            <tspan font-family="Helvetica" font-weight="bold" font-size="12" fill="black" x="37.64746" y="11">virtual_sitting_days</tspan>
          </text>
        </g>
      </g>
      <g id="Line_113">
        <path d="M 376.5851 258.18602 L 285.8077 368.2462 C 281.56473 364.7466 274.56554 373.23257 278.8085 376.73216 L 175.6413 501.814" marker-end="url(#CrowBar_Marker)" marker-start="url(#DoubleBar_Marker)" stroke="black" stroke-linecap="round" stroke-linejoin="round" stroke-width="1"/>
      </g>
      <g id="Line_114">
        <line x1="385.8604" y1="400.64877" x2="217.23433" y2="505.35123" marker-end="url(#CrowBar_Marker)" marker-start="url(#DoubleBar_Marker)" stroke="black" stroke-linecap="round" stroke-linejoin="round" stroke-width="1"/>
      </g>
      <g id="Group_120">
        <g id="Graphic_122">
          <rect x="639" y="546" width="198" height="84" fill="yellow"/>
          <rect x="639" y="546" width="198" height="84" stroke="black" stroke-linecap="round" stroke-linejoin="round" stroke-width="1"/>
          <text transform="translate(644 546)" fill="black">
            <tspan font-family="Helvetica" font-size="12" fill="black" x="0" y="11">id</tspan>
            <tspan font-family="Helvetica" font-size="12" fill="black" x="0" y="25">description</tspan>
            <tspan font-family="Helvetica" font-size="12" fill="black" x="0" y="39">start_date</tspan>
            <tspan font-family="Helvetica" font-size="12" fill="black" x="0" y="53">end_date</tspan>
            <tspan font-family="Helvetica" font-size="12" fill="black" x="0" y="67">google_event_id</tspan>
            <tspan font-family="Helvetica" font-size="12" fill="black" x="0" y="81">house_id</tspan>
          </text>
        </g>
        <g id="Graphic_121">
          <rect x="639" y="532" width="198" height="14" fill="yellow"/>
          <rect x="639" y="532" width="198" height="14" stroke="black" stroke-linecap="round" stroke-linejoin="round" stroke-width="1"/>
          <text transform="translate(644 532)" fill="black">
            <tspan font-family="Helvetica" font-weight="bold" font-size="12" fill="black" x="55.969727" y="11">recess_dates</tspan>
          </text>
        </g>
      </g>
      <g id="Line_123">
        <line x1="738" y1="513.5" x2="738" y2="450.5" marker-end="url(#CrowBall_Marker)" marker-start="url(#BarBall_Marker)" stroke="black" stroke-linecap="round" stroke-linejoin="round" stroke-width="1"/>
      </g>
      <g id="Line_124">
        <line x1="474.7201" y1="401.1781" x2="650.9816" y2="521.5659" marker-end="url(#CrowBall_Marker)" marker-start="url(#DoubleBar_Marker)" stroke="black" stroke-linecap="round" stroke-linejoin="round" stroke-width="1"/>
      </g>
    </g>
  </g>
</svg>
